<?xml version="1.0" encoding="us-ascii" standalone="no"?><svg xmlns="http://www.w3.org/2000/svg" xmlns:xlink="http://www.w3.org/1999/xlink" contentStyleType="text/css" height="179px" preserveAspectRatio="none" style="width:502px;height:179px;background:#FFFFFF;" version="1.1" viewBox="0 0 502 179" width="502px" zoomAndPan="magnify"><defs/><g><g id="elem_Client"><rect fill="#F1F1F1" height="36.2969" style="stroke:#181818;stroke-width:0.5;" width="57" x="7" y="11.5"/><text fill="#000000" font-family="sans-serif" font-size="14" lengthAdjust="spacing" textLength="43" x="14" y="26.4951">Client</text><line style="stroke:#181818;stroke-width:0.5;" x1="8" x2="63" y1="31.7969" y2="31.7969"/></g><g id="elem_ClientInterface"><rect fill="#F1F1F1" height="44.5938" style="stroke:#181818;stroke-width:0.5;" width="123" x="99" y="7"/><text fill="#000000" font-family="sans-serif" font-size="14" lengthAdjust="spacing" textLength="109" x="106" y="21.9951">ClientInterface</text><line style="stroke:#181818;stroke-width:0.5;" x1="100" x2="221" y1="27.2969" y2="27.2969"/><text fill="#000000" font-family="sans-serif" font-size="14" lengthAdjust="spacing" textLength="82" x="105" y="44.292">&#171;Interface&#187;</text></g><g id="elem_Adapter"><rect fill="#F1F1F1" height="60.8906" style="stroke:#181818;stroke-width:0.5;" width="148" x="86.5" y="112"/><text fill="#000000" font-family="sans-serif" font-size="14" lengthAdjust="spacing" textLength="59" x="131" y="126.9951">Adapter</text><line style="stroke:#181818;stroke-width:0.5;" x1="87.5" x2="233.5" y1="132.2969" y2="132.2969"/><rect fill="none" height="6" style="stroke:#C82930;stroke-width:1.0;" width="6" x="94.5" y="142.9453"/><text fill="#000000" font-family="sans-serif" font-size="14" lengthAdjust="spacing" textLength="122" x="106.5" y="149.292">adaptee: Service</text><ellipse cx="97.5" cy="162.2422" fill="#84BE84" rx="3" ry="3" style="stroke:#038048;stroke-width:1.0;"/><text fill="#000000" font-family="sans-serif" font-size="14" lengthAdjust="spacing" textLength="99" x="106.5" y="165.5889">method(data)</text></g><g id="elem_Service"><rect fill="#F1F1F1" height="60.8906" style="stroke:#181818;stroke-width:0.5;" width="226" x="269.5" y="112"/><text fill="#000000" font-family="sans-serif" font-size="14" lengthAdjust="spacing" textLength="53" x="356" y="126.9951">Service</text><line style="stroke:#181818;stroke-width:0.5;" x1="270.5" x2="494.5" y1="132.2969" y2="132.2969"/><text fill="#000000" font-family="sans-serif" font-size="14" lengthAdjust="spacing" textLength="15" x="289.5" y="149.292">...</text><ellipse cx="280.5" cy="162.2422" fill="#84BE84" rx="3" ry="3" style="stroke:#038048;stroke-width:1.0;"/><text fill="#000000" font-family="sans-serif" font-size="14" lengthAdjust="spacing" textLength="200" x="289.5" y="165.5889">serviceMethod(specialData)</text></g><!--link Client to ClientInterface--><g id="link_Client_ClientInterface"><path codeLine="17" d="M64.3086,29.5 C74.1211,29.5 83.9336,29.5 93.7461,29.5 " fill="none" id="Client-to-ClientInterface" style="stroke:#181818;stroke-width:1.0;"/><polygon fill="#181818" points="98.8774,29.5,89.8774,25.5,93.8774,29.5,89.8774,33.5,98.8774,29.5" style="stroke:#181818;stroke-width:1.0;"/></g><!--reverse link ClientInterface to Adapter--><g id="link_ClientInterface_Adapter"><path codeLine="18" d="M160.5,72.639 C160.5,85.7263 160.5,99.8674 160.5,111.9101 " fill="none" id="ClientInterface-backto-Adapter" style="stroke:#181818;stroke-width:1.0;stroke-dasharray:7.0,7.0;"/><polygon fill="none" points="153.5,72.165,160.5,52.165,167.5,72.165,153.5,72.165" style="stroke:#181818;stroke-width:1.0;"/></g><!--link Adapter to Service--><g id="link_Adapter_Service"><path codeLine="19" d="M234.645,142.5 C244.481,142.5 254.318,142.5 264.154,142.5 " fill="none" id="Adapter-to-Service" style="stroke:#181818;stroke-width:1.0;"/><polygon fill="#181818" points="269.298,142.5,260.298,138.5,264.298,142.5,260.298,146.5,269.298,142.5" style="stroke:#181818;stroke-width:1.0;"/></g><!--SRC=[oq_AIaqkKN3EoKpDA-5I008maOyix9bNabgKbfYSMWsM0m4R6xYWdHrOj9OBMQDZIc81K1wXGLSX4IoKQgKGd5fKbfcS2fVIpaqjoSXFqKX9B4dKn68ML3t2B3qzFOHcXMA8j2_4aEA2rEJCn1mNTBCWFb7GBSfCpoZHjKFt6P8Qk9Y2JOsU7imdO0LGDi8KgDC0]--></g></svg>