<?xml version="1.0" encoding="us-ascii" standalone="no"?><svg xmlns="http://www.w3.org/2000/svg" xmlns:xlink="http://www.w3.org/1999/xlink" contentStyleType="text/css" height="413px" preserveAspectRatio="none" style="width:640px;height:413px;background:#FFFFFF;" version="1.1" viewBox="0 0 640 413" width="640px" zoomAndPan="magnify"><defs/><g><g id="elem_TreeFactory"><rect fill="#F1F1F1" height="60.8906" style="stroke:#181818;stroke-width:0.5;" width="276" x="7" y="15"/><text fill="#000000" font-family="sans-serif" font-size="14" lengthAdjust="spacing" textLength="87" x="101.5" y="29.9951">TreeFactory</text><line style="stroke:#181818;stroke-width:0.5;" x1="8" x2="282" y1="35.2969" y2="35.2969"/><rect fill="none" height="6" style="stroke:#C82930;stroke-width:1.0;" width="6" x="15" y="45.9453"/><text fill="#000000" font-family="sans-serif" font-size="14" lengthAdjust="spacing" textLength="166" x="27" y="52.292">treeTypes: TreeType[ ]</text><ellipse cx="18" cy="65.2422" fill="#84BE84" rx="3" ry="3" style="stroke:#038048;stroke-width:1.0;"/><text fill="#000000" font-family="sans-serif" font-size="14" lengthAdjust="spacing" textLength="250" x="27" y="68.5889">getTreeType(name, color, texture)</text></g><g id="elem_Forest"><rect fill="#F1F1F1" height="77.1875" style="stroke:#181818;stroke-width:0.5;" width="315" x="318.5" y="7"/><text fill="#000000" font-family="sans-serif" font-size="14" lengthAdjust="spacing" textLength="46" x="453" y="21.9951">Forest</text><line style="stroke:#181818;stroke-width:0.5;" x1="319.5" x2="632.5" y1="27.2969" y2="27.2969"/><ellipse cx="329.5" cy="40.9453" fill="none" rx="3" ry="3" style="stroke:#038048;stroke-width:1.0;"/><text fill="#000000" font-family="sans-serif" font-size="14" lengthAdjust="spacing" textLength="98" x="338.5" y="44.292">trees: Tree [ ]</text><ellipse cx="329.5" cy="57.2422" fill="#84BE84" rx="3" ry="3" style="stroke:#038048;stroke-width:1.0;"/><text fill="#000000" font-family="sans-serif" font-size="14" lengthAdjust="spacing" textLength="289" x="338.5" y="60.5889">plantTree(x,y,name,color, texture): Tree</text><ellipse cx="329.5" cy="73.5391" fill="#84BE84" rx="3" ry="3" style="stroke:#038048;stroke-width:1.0;"/><text fill="#000000" font-family="sans-serif" font-size="14" lengthAdjust="spacing" textLength="92" x="338.5" y="76.8857">draw(canvas)</text></g><g id="elem_Tree"><rect fill="#F1F1F1" height="93.4844" style="stroke:#181818;stroke-width:0.5;" width="138" x="354" y="144"/><text fill="#000000" font-family="sans-serif" font-size="14" lengthAdjust="spacing" textLength="33" x="406.5" y="158.9951">Tree</text><line style="stroke:#181818;stroke-width:0.5;" x1="355" x2="491" y1="164.2969" y2="164.2969"/><ellipse cx="365" cy="177.9453" fill="none" rx="3" ry="3" style="stroke:#038048;stroke-width:1.0;"/><text fill="#000000" font-family="sans-serif" font-size="14" lengthAdjust="spacing" textLength="8" x="374" y="181.292">x</text><ellipse cx="365" cy="194.2422" fill="none" rx="3" ry="3" style="stroke:#038048;stroke-width:1.0;"/><text fill="#000000" font-family="sans-serif" font-size="14" lengthAdjust="spacing" textLength="8" x="374" y="197.5889">y</text><ellipse cx="365" cy="210.5391" fill="none" rx="3" ry="3" style="stroke:#038048;stroke-width:1.0;"/><text fill="#000000" font-family="sans-serif" font-size="14" lengthAdjust="spacing" textLength="112" x="374" y="213.8857">type: TreeType</text><ellipse cx="365" cy="226.8359" fill="#84BE84" rx="3" ry="3" style="stroke:#038048;stroke-width:1.0;"/><text fill="#000000" font-family="sans-serif" font-size="14" lengthAdjust="spacing" textLength="92" x="374" y="230.1826">draw(canvas)</text></g><g id="elem_TreeType"><rect fill="#F1F1F1" height="109.7813" style="stroke:#181818;stroke-width:0.5;" width="251" x="184.5" y="297"/><text fill="#000000" font-family="sans-serif" font-size="14" lengthAdjust="spacing" textLength="69" x="275.5" y="311.9951">TreeType</text><line style="stroke:#181818;stroke-width:0.5;" x1="185.5" x2="434.5" y1="317.2969" y2="317.2969"/><rect fill="none" height="6" style="stroke:#C82930;stroke-width:1.0;" width="6" x="192.5" y="327.9453"/><text fill="#000000" font-family="sans-serif" font-size="14" lengthAdjust="spacing" textLength="40" x="204.5" y="334.292">name</text><rect fill="none" height="6" style="stroke:#C82930;stroke-width:1.0;" width="6" x="192.5" y="344.2422"/><text fill="#000000" font-family="sans-serif" font-size="14" lengthAdjust="spacing" textLength="36" x="204.5" y="350.5889">color</text><rect fill="none" height="6" style="stroke:#C82930;stroke-width:1.0;" width="6" x="192.5" y="360.5391"/><text fill="#000000" font-family="sans-serif" font-size="14" lengthAdjust="spacing" textLength="54" x="204.5" y="366.8857">texture</text><ellipse cx="195.5" cy="379.8359" fill="#84BE84" rx="3" ry="3" style="stroke:#038048;stroke-width:1.0;"/><text fill="#000000" font-family="sans-serif" font-size="14" lengthAdjust="spacing" textLength="225" x="204.5" y="383.1826">TreeType(name, color, texture)</text><ellipse cx="195.5" cy="396.1328" fill="#84BE84" rx="3" ry="3" style="stroke:#038048;stroke-width:1.0;"/><text fill="#000000" font-family="sans-serif" font-size="14" lengthAdjust="spacing" textLength="116" x="204.5" y="399.4795">draw(canvas,x,y)</text></g><!--reverse link TreeFactory to Forest--><g id="link_TreeFactory_Forest"><path codeLine="28" d="M288.283,45.5 C298.34,45.5 308.397,45.5 318.454,45.5 " fill="none" id="TreeFactory-backto-Forest" style="stroke:#181818;stroke-width:1.0;"/><polygon fill="#181818" points="283.024,45.5,292.024,49.5,288.024,45.5,292.024,41.5,283.024,45.5" style="stroke:#181818;stroke-width:1.0;"/></g><!--link Forest to Tree--><g id="link_Forest_Tree"><path codeLine="29" d="M457.448,96.556 C453.269,107.831 448.799,119.89 444.511,131.461 " fill="none" id="Forest-Tree" style="stroke:#181818;stroke-width:1.0;"/><polygon fill="none" points="462.075,84.072,456.2388,88.3074,457.9037,95.3237,463.7399,91.0883,462.075,84.072" style="stroke:#181818;stroke-width:1.0;"/><polygon fill="#181818" points="439.951,143.765,446.8297,136.7164,441.6888,139.0767,439.3285,133.9358,439.951,143.765" style="stroke:#181818;stroke-width:1.0;"/><line style="stroke:#181818;stroke-width:1.0;" x1="441.6888" x2="444.4685" y1="139.0767" y2="131.5755"/></g><!--link TreeFactory to TreeType--><g id="link_TreeFactory_TreeType"><path codeLine="30" d="M167.379,87.8 C194.884,138.559 241.896,225.316 274.385,285.274 " fill="none" id="TreeFactory-TreeType" style="stroke:#181818;stroke-width:1.0;"/><polygon fill="none" points="161.121,76.251,160.463,83.432,166.8386,86.8013,167.4966,79.6203,161.121,76.251" style="stroke:#181818;stroke-width:1.0;"/><polygon fill="#181818" points="280.679,296.89,279.9076,287.0714,278.2967,292.494,272.8741,290.8831,280.679,296.89" style="stroke:#181818;stroke-width:1.0;"/><line style="stroke:#181818;stroke-width:1.0;" x1="278.2967" x2="274.4855" y1="292.494" y2="285.46"/></g><!--link Tree to TreeType--><g id="link_Tree_TreeType"><path codeLine="31" d="M390.619,237.206 C378.371,254.494 364.262,274.409 351.305,292.698 " fill="none" id="Tree-to-TreeType" style="stroke:#181818;stroke-width:1.0;"/><polygon fill="#181818" points="348.386,296.818,356.8543,291.7892,351.2777,292.739,350.3279,287.1625,348.386,296.818" style="stroke:#181818;stroke-width:1.0;"/></g><!--SRC=[bL4x3i8m3Drx2ez5JI_0mDWJT4CC8HWaL1gK6cY4k3kDKngtOe0iIVnvx_dPxize26g7M6b3rlbd1kCfQOZM_ehTcWl2SmkxAL-Sa3xnlDKNL61iOvq2mfvk3bTS-ihuif6fiWuxIYH581a9O8P-RNJB-7cll6By1NpiIXq7fn-vqUrTTz-eGx4WXbwylH0qZ9C6_WizD0Z_WkRqO_72t3X4bWX-y78fH0tMpCH4Uw5iy4ZbHkvLfcqvvZWeYb9ccfqN8wDl]--></g></svg>