<?xml version="1.0" encoding="UTF-8" standalone="no"?><svg xmlns="http://www.w3.org/2000/svg" xmlns:xlink="http://www.w3.org/1999/xlink" contentStyleType="text/css" height="257px" preserveAspectRatio="none" style="width:268px;height:257px;background:#000000;" version="1.1" viewBox="0 0 268 257" width="268px" zoomAndPan="magnify"><defs/><g><!--MD5=[b11ab56dccdddbb051fe3bc3bed00176]
cluster proxyPattern--><g id="cluster_proxyPattern"><path d="M8.5,6 L99.5,6 A3.75,3.75 0 0 1 102,8.5 L109,29.6094 L258.5,29.6094 A2.5,2.5 0 0 1 261,32.1094 L261,247.5 A2.5,2.5 0 0 1 258.5,250 L8.5,250 A2.5,2.5 0 0 1 6,247.5 L6,8.5 A2.5,2.5 0 0 1 8.5,6 " fill="none" style="stroke:#FFFFFF;stroke-width:1.5;"/><line style="stroke:#FFFFFF;stroke-width:1.5;" x1="6" x2="109" y1="29.6094" y2="29.6094"/><text fill="#FFFFFF" font-family="sans-serif" font-size="14" font-weight="bold" lengthAdjust="spacing" textLength="90" x="10" y="22.5332">proxyPattern</text></g><g id="elem_Client"><rect fill="#0E0E0E" height="37.6094" style="stroke:#E7E7E7;stroke-width:0.5;" width="50" x="44" y="56"/><text fill="#FFFFFF" font-family="sans-serif" font-size="14" lengthAdjust="spacing" textLength="36" x="51" y="72.5332">Client</text><line style="stroke:#E7E7E7;stroke-width:0.5;" x1="45" x2="93" y1="77.6094" y2="77.6094"/></g><!--MD5=[d0da0a299942266ebd64acf2b2e95fa4]
class Subject--><g id="elem_Subject"><rect codeLine="7" fill="#0E0E0E" height="65.6094" id="Subject" rx="2.5" ry="2.5" style="stroke:#E7E7E7;stroke-width:0.5;" width="79" x="129.5" y="42"/><ellipse cx="144.5" cy="58" fill="#4E4E4E" rx="11" ry="11" style="stroke:#E7E7E7;stroke-width:1.0;"/><path d="M145.4531,54.6406 L145.4531,61.2969 L147.1719,61.2969 Q147.7813,61.2969 148.0469,61.5313 Q148.3125,61.7656 148.3125,62.1563 Q148.3125,62.5313 148.0469,62.7656 Q147.7813,63 147.1719,63 L142.0313,63 Q141.4219,63 141.1563,62.7656 Q140.8906,62.5313 140.8906,62.1406 Q140.8906,61.7656 141.1563,61.5313 Q141.4219,61.2969 142.0313,61.2969 L143.75,61.2969 L143.75,54.6406 L142.0313,54.6406 Q141.4219,54.6406 141.1563,54.4063 Q140.8906,54.1719 140.8906,53.7813 Q140.8906,53.4063 141.1563,53.1719 Q141.4219,52.9375 142.0313,52.9375 L147.1719,52.9375 Q147.7813,52.9375 148.0469,53.1719 Q148.3125,53.4063 148.3125,53.7813 Q148.3125,54.1719 148.0469,54.4063 Q147.7813,54.6406 147.1719,54.6406 L145.4531,54.6406 Z " fill="#FFFFFF"/><text fill="#FFFFFF" font-family="sans-serif" font-size="14" font-style="italic" lengthAdjust="spacing" textLength="47" x="158.5" y="63.7285">Subject</text><line style="stroke:#E7E7E7;stroke-width:0.5;" x1="130.5" x2="207.5" y1="74" y2="74"/><line style="stroke:#E7E7E7;stroke-width:0.5;" x1="130.5" x2="207.5" y1="82" y2="82"/><text fill="#FFFFFF" font-family="sans-serif" font-size="14" lengthAdjust="spacing" textLength="67" x="135.5" y="100.5332">DoAction()</text></g><!--MD5=[f7109e258b7e3e4bb390e34b115b99ce]
class Proxy--><g id="elem_Proxy"><rect codeLine="11" fill="#0E0E0E" height="65.6094" id="Proxy" rx="2.5" ry="2.5" style="stroke:#E7E7E7;stroke-width:0.5;" width="79" x="22.5" y="168"/><ellipse cx="42.9" cy="184" fill="#3D3D3D" rx="11" ry="11" style="stroke:#E7E7E7;stroke-width:1.0;"/><path d="M45.6656,179.875 Q45.8219,179.6563 46.0094,179.5469 Q46.1969,179.4375 46.4156,179.4375 Q46.7906,179.4375 47.025,179.7031 Q47.2594,179.9531 47.2594,180.5625 L47.2594,182.0156 Q47.2594,182.625 47.025,182.8906 Q46.7906,183.1563 46.4156,183.1563 Q46.0719,183.1563 45.8688,182.9531 Q45.6656,182.7656 45.5563,182.25 Q45.5094,181.8906 45.3219,181.7031 Q44.9938,181.3281 44.3844,181.1094 Q43.775,180.8906 43.15,180.8906 Q42.3844,180.8906 41.7438,181.2188 Q41.1188,181.5469 40.6188,182.2969 Q40.1344,183.0469 40.1344,184.0781 L40.1344,185.1719 Q40.1344,186.4063 41.025,187.2344 Q41.9156,188.0469 43.5094,188.0469 Q44.4469,188.0469 45.1031,187.7969 Q45.4938,187.6406 45.9156,187.2031 Q46.1813,186.9375 46.3219,186.8594 Q46.4781,186.7813 46.6813,186.7813 Q47.0094,186.7813 47.2594,187.0469 Q47.525,187.2969 47.525,187.6406 Q47.525,187.9844 47.1813,188.3906 Q46.6813,188.9688 45.8844,189.2969 Q44.8063,189.75 43.5094,189.75 Q41.9938,189.75 40.7906,189.125 Q39.8063,188.625 39.1188,187.5625 Q38.4313,186.4844 38.4313,185.2031 L38.4313,184.0469 Q38.4313,182.7188 39.0406,181.5781 Q39.6656,180.4219 40.7594,179.8125 Q41.8531,179.1875 43.0875,179.1875 Q43.8219,179.1875 44.4625,179.3594 Q45.1188,179.5156 45.6656,179.875 Z " fill="#FFFFFF"/><text fill="#FFFFFF" font-family="sans-serif" font-size="14" lengthAdjust="spacing" textLength="35" x="58.1" y="189.7285">Proxy</text><line style="stroke:#E7E7E7;stroke-width:0.5;" x1="23.5" x2="100.5" y1="200" y2="200"/><line style="stroke:#E7E7E7;stroke-width:0.5;" x1="23.5" x2="100.5" y1="208" y2="208"/><text fill="#FFFFFF" font-family="sans-serif" font-size="14" lengthAdjust="spacing" textLength="67" x="28.5" y="226.5332">DoAction()</text></g><!--MD5=[449b3045b33c31979c3bb324a2b48d70]
class RealSubject--><g id="elem_RealSubject"><rect codeLine="15" fill="#0E0E0E" height="65.6094" id="RealSubject" rx="2.5" ry="2.5" style="stroke:#E7E7E7;stroke-width:0.5;" width="108" x="137" y="168"/><ellipse cx="152" cy="184" fill="#3D3D3D" rx="11" ry="11" style="stroke:#E7E7E7;stroke-width:1.0;"/><path d="M154.7656,179.875 Q154.9219,179.6563 155.1094,179.5469 Q155.2969,179.4375 155.5156,179.4375 Q155.8906,179.4375 156.125,179.7031 Q156.3594,179.9531 156.3594,180.5625 L156.3594,182.0156 Q156.3594,182.625 156.125,182.8906 Q155.8906,183.1563 155.5156,183.1563 Q155.1719,183.1563 154.9688,182.9531 Q154.7656,182.7656 154.6563,182.25 Q154.6094,181.8906 154.4219,181.7031 Q154.0938,181.3281 153.4844,181.1094 Q152.875,180.8906 152.25,180.8906 Q151.4844,180.8906 150.8438,181.2188 Q150.2188,181.5469 149.7188,182.2969 Q149.2344,183.0469 149.2344,184.0781 L149.2344,185.1719 Q149.2344,186.4063 150.125,187.2344 Q151.0156,188.0469 152.6094,188.0469 Q153.5469,188.0469 154.2031,187.7969 Q154.5938,187.6406 155.0156,187.2031 Q155.2813,186.9375 155.4219,186.8594 Q155.5781,186.7813 155.7813,186.7813 Q156.1094,186.7813 156.3594,187.0469 Q156.625,187.2969 156.625,187.6406 Q156.625,187.9844 156.2813,188.3906 Q155.7813,188.9688 154.9844,189.2969 Q153.9063,189.75 152.6094,189.75 Q151.0938,189.75 149.8906,189.125 Q148.9063,188.625 148.2188,187.5625 Q147.5313,186.4844 147.5313,185.2031 L147.5313,184.0469 Q147.5313,182.7188 148.1406,181.5781 Q148.7656,180.4219 149.8594,179.8125 Q150.9531,179.1875 152.1875,179.1875 Q152.9219,179.1875 153.5625,179.3594 Q154.2188,179.5156 154.7656,179.875 Z " fill="#FFFFFF"/><text fill="#FFFFFF" font-family="sans-serif" font-size="14" lengthAdjust="spacing" textLength="76" x="166" y="189.7285">RealSubject</text><line style="stroke:#E7E7E7;stroke-width:0.5;" x1="138" x2="244" y1="200" y2="200"/><line style="stroke:#E7E7E7;stroke-width:0.5;" x1="138" x2="244" y1="208" y2="208"/><text fill="#FFFFFF" font-family="sans-serif" font-size="14" lengthAdjust="spacing" textLength="67" x="143" y="226.5332">DoAction()</text></g><!--MD5=[9ac177fefad293b327de6edb7bef718c]
link Client to Subject--><g id="link_Client_Subject"><path codeLine="20" d="M94.39,75 C104.32,75 114.25,75 124.17,75 " fill="none" id="Client-to-Subject" style="stroke:#E7E7E7;stroke-width:1.0;stroke-dasharray:7.0,7.0;"/><polygon fill="#E7E7E7" points="129.36,75,120.36,71,124.36,75,120.36,79,129.36,75" style="stroke:#E7E7E7;stroke-width:1.0;"/></g><!--MD5=[3c3c3ce047c26dc485554d65ad2bca9c]
reverse link Subject to Proxy--><g id="link_Subject_Proxy"><path codeLine="21" d="M127.85,123.69 C115.08,138.49 101.32,154.43 89.69,167.91 " fill="none" id="Subject-backto-Proxy" style="stroke:#E7E7E7;stroke-width:1.0;"/><polygon fill="none" points="122.8,118.82,141.17,108.26,133.4,127.97,122.8,118.82" style="stroke:#E7E7E7;stroke-width:1.0;"/></g><!--MD5=[d47c67f0c46790a0239e176d4e556341]
reverse link Subject to RealSubject--><g id="link_Subject_RealSubject"><path codeLine="22" d="M178.22,127.97 C180.62,141.52 183.14,155.72 185.31,167.91 " fill="none" id="Subject-backto-RealSubject" style="stroke:#E7E7E7;stroke-width:1.0;"/><polygon fill="none" points="171.32,129.17,174.72,108.26,185.11,126.73,171.32,129.17" style="stroke:#E7E7E7;stroke-width:1.0;"/></g><!--MD5=[49bea103da680686eb3e0dd80746fb38]
link Proxy to RealSubject--><g id="link_Proxy_RealSubject"><path codeLine="23" d="M101.56,201 C111.57,201 121.59,201 131.61,201 " fill="none" id="Proxy-to-RealSubject" style="stroke:#E7E7E7;stroke-width:1.0;"/><polygon fill="#E7E7E7" points="136.84,201,127.84,197,131.84,201,127.84,205,136.84,201" style="stroke:#E7E7E7;stroke-width:1.0;"/></g><!--MD5=[b2712d6eb4fd5550d4eb71e2e5ad6142]
@startuml proxy

skinparam monochrome reverse

package proxyPattern{
    object Client

    interface Subject{
        DoAction()
    }

    class Proxy{
        DoAction()
    }

    class RealSubject{
        DoAction()
    }
}

Client .right.> Subject
Proxy -up-|> Subject
RealSubject -up-|> Subject
Proxy -right-> RealSubject

@enduml

PlantUML version 1.2022.7(Mon Aug 22 11:01:30 CST 2022)
(GPL source distribution)
Java Runtime: Java(TM) SE Runtime Environment
JVM: Java HotSpot(TM) 64-Bit Server VM
Default Encoding: Cp1252
Language: en
Country: US
--></g></svg>