<?xml version="1.0" encoding="UTF-8" standalone="no"?><svg xmlns="http://www.w3.org/2000/svg" xmlns:xlink="http://www.w3.org/1999/xlink" contentStyleType="text/css" height="495px" preserveAspectRatio="none" style="width:649px;height:495px;background:#000000;" version="1.1" viewBox="0 0 649 495" width="649px" zoomAndPan="magnify"><defs/><g><!--MD5=[644d4e789ec75fa4c48b5bf2bd093095]
cluster builderPattern--><g id="cluster_builderPattern"><path d="M8.5,6 L110.5,6 A3.75,3.75 0 0 1 113,8.5 L120,29.6094 L639.5,29.6094 A2.5,2.5 0 0 1 642,32.1094 L642,485.5 A2.5,2.5 0 0 1 639.5,488 L8.5,488 A2.5,2.5 0 0 1 6,485.5 L6,8.5 A2.5,2.5 0 0 1 8.5,6 " fill="none" style="stroke:#FFFFFF;stroke-width:1.5;"/><line style="stroke:#FFFFFF;stroke-width:1.5;" x1="6" x2="120" y1="29.6094" y2="29.6094"/><text fill="#FFFFFF" font-family="sans-serif" font-size="14" font-weight="bold" lengthAdjust="spacing" textLength="101" x="10" y="22.5332">builderPattern</text></g><g id="elem_Client"><rect fill="#0E0E0E" height="37.6094" style="stroke:#E7E7E7;stroke-width:0.5;" width="50" x="410" y="42"/><text fill="#FFFFFF" font-family="sans-serif" font-size="14" lengthAdjust="spacing" textLength="36" x="417" y="58.5332">Client</text><line style="stroke:#E7E7E7;stroke-width:0.5;" x1="411" x2="459" y1="63.6094" y2="63.6094"/></g><g id="elem_Product1"><rect fill="#0E0E0E" height="37.6094" style="stroke:#E7E7E7;stroke-width:0.5;" width="71" x="511.5" y="394"/><text fill="#FFFFFF" font-family="sans-serif" font-size="14" lengthAdjust="spacing" textLength="57" x="518.5" y="410.5332">Product1</text><line style="stroke:#E7E7E7;stroke-width:0.5;" x1="512.5" x2="581.5" y1="415.6094" y2="415.6094"/></g><g id="elem_Product2"><rect fill="#0E0E0E" height="37.6094" style="stroke:#E7E7E7;stroke-width:0.5;" width="71" x="65.5" y="394"/><text fill="#FFFFFF" font-family="sans-serif" font-size="14" lengthAdjust="spacing" textLength="57" x="72.5" y="410.5332">Product2</text><line style="stroke:#E7E7E7;stroke-width:0.5;" x1="66.5" x2="135.5" y1="415.6094" y2="415.6094"/></g><!--MD5=[a8dc8aefce085dae70bec15e302cfec9]
class Builder--><g id="elem_Builder"><rect codeLine="10" fill="#0E0E0E" height="118.4375" id="Builder" rx="2.5" ry="2.5" style="stroke:#E7E7E7;stroke-width:0.5;" width="104" x="272" y="354"/><ellipse cx="299.6" cy="370" fill="#4E4E4E" rx="11" ry="11" style="stroke:#E7E7E7;stroke-width:1.0;"/><path d="M300.5531,366.6406 L300.5531,373.2969 L302.2719,373.2969 Q302.8813,373.2969 303.1469,373.5313 Q303.4125,373.7656 303.4125,374.1563 Q303.4125,374.5313 303.1469,374.7656 Q302.8813,375 302.2719,375 L297.1313,375 Q296.5219,375 296.2563,374.7656 Q295.9906,374.5313 295.9906,374.1406 Q295.9906,373.7656 296.2563,373.5313 Q296.5219,373.2969 297.1313,373.2969 L298.85,373.2969 L298.85,366.6406 L297.1313,366.6406 Q296.5219,366.6406 296.2563,366.4063 Q295.9906,366.1719 295.9906,365.7813 Q295.9906,365.4063 296.2563,365.1719 Q296.5219,364.9375 297.1313,364.9375 L302.2719,364.9375 Q302.8813,364.9375 303.1469,365.1719 Q303.4125,365.4063 303.4125,365.7813 Q303.4125,366.1719 303.1469,366.4063 Q302.8813,366.6406 302.2719,366.6406 L300.5531,366.6406 Z " fill="#FFFFFF"/><text fill="#FFFFFF" font-family="sans-serif" font-size="14" font-style="italic" lengthAdjust="spacing" textLength="44" x="316.4" y="375.7285">Builder</text><line style="stroke:#E7E7E7;stroke-width:0.5;" x1="273" x2="375" y1="386" y2="386"/><line style="stroke:#E7E7E7;stroke-width:0.5;" x1="273" x2="375" y1="394" y2="394"/><ellipse cx="283" cy="408.3047" fill="#595959" rx="3" ry="3" style="stroke:#ABABAB;stroke-width:1.0;"/><text fill="#FFFFFF" font-family="sans-serif" font-size="14" lengthAdjust="spacing" textLength="42" x="292" y="412.5332">reset()</text><ellipse cx="283" cy="425.9141" fill="#595959" rx="3" ry="3" style="stroke:#ABABAB;stroke-width:1.0;"/><text fill="#FFFFFF" font-family="sans-serif" font-size="14" lengthAdjust="spacing" textLength="78" x="292" y="430.1426">buildStepA()</text><ellipse cx="283" cy="443.5234" fill="#595959" rx="3" ry="3" style="stroke:#ABABAB;stroke-width:1.0;"/><text fill="#FFFFFF" font-family="sans-serif" font-size="14" lengthAdjust="spacing" textLength="78" x="292" y="447.752">buildStepB()</text><ellipse cx="283" cy="461.1328" fill="#595959" rx="3" ry="3" style="stroke:#ABABAB;stroke-width:1.0;"/><text fill="#FFFFFF" font-family="sans-serif" font-size="14" lengthAdjust="spacing" textLength="77" x="292" y="465.3613">buildStepZ()</text></g><!--MD5=[57adcbfcd00175f9b7abe25398e7de0c]
class Director--><g id="elem_Director"><rect codeLine="17" fill="#0E0E0E" height="118.4375" id="Director" rx="2.5" ry="2.5" style="stroke:#E7E7E7;stroke-width:0.5;" width="218" x="215" y="158"/><ellipse cx="294.75" cy="174" fill="#3D3D3D" rx="11" ry="11" style="stroke:#E7E7E7;stroke-width:1.0;"/><path d="M297.5156,169.875 Q297.6719,169.6563 297.8594,169.5469 Q298.0469,169.4375 298.2656,169.4375 Q298.6406,169.4375 298.875,169.7031 Q299.1094,169.9531 299.1094,170.5625 L299.1094,172.0156 Q299.1094,172.625 298.875,172.8906 Q298.6406,173.1563 298.2656,173.1563 Q297.9219,173.1563 297.7188,172.9531 Q297.5156,172.7656 297.4063,172.25 Q297.3594,171.8906 297.1719,171.7031 Q296.8438,171.3281 296.2344,171.1094 Q295.625,170.8906 295,170.8906 Q294.2344,170.8906 293.5938,171.2188 Q292.9688,171.5469 292.4688,172.2969 Q291.9844,173.0469 291.9844,174.0781 L291.9844,175.1719 Q291.9844,176.4063 292.875,177.2344 Q293.7656,178.0469 295.3594,178.0469 Q296.2969,178.0469 296.9531,177.7969 Q297.3438,177.6406 297.7656,177.2031 Q298.0313,176.9375 298.1719,176.8594 Q298.3281,176.7813 298.5313,176.7813 Q298.8594,176.7813 299.1094,177.0469 Q299.375,177.2969 299.375,177.6406 Q299.375,177.9844 299.0313,178.3906 Q298.5313,178.9688 297.7344,179.2969 Q296.6563,179.75 295.3594,179.75 Q293.8438,179.75 292.6406,179.125 Q291.6563,178.625 290.9688,177.5625 Q290.2813,176.4844 290.2813,175.2031 L290.2813,174.0469 Q290.2813,172.7188 290.8906,171.5781 Q291.5156,170.4219 292.6094,169.8125 Q293.7031,169.1875 294.9375,169.1875 Q295.6719,169.1875 296.3125,169.3594 Q296.9688,169.5156 297.5156,169.875 Z " fill="#FFFFFF"/><text fill="#FFFFFF" font-family="sans-serif" font-size="14" lengthAdjust="spacing" textLength="50" x="315.25" y="179.7285">Director</text><line style="stroke:#E7E7E7;stroke-width:0.5;" x1="216" x2="432" y1="190" y2="190"/><rect fill="none" height="6" style="stroke:#A6A6A6;stroke-width:1.0;" width="6" x="223" y="201.3047"/><text fill="#FFFFFF" font-family="sans-serif" font-size="14" lengthAdjust="spacing" textLength="91" x="235" y="208.5332">Builder builder</text><line style="stroke:#E7E7E7;stroke-width:0.5;" x1="216" x2="432" y1="215.6094" y2="215.6094"/><ellipse cx="226" cy="229.9141" fill="#595959" rx="3" ry="3" style="stroke:#ABABAB;stroke-width:1.0;"/><text fill="#FFFFFF" font-family="sans-serif" font-size="14" lengthAdjust="spacing" textLength="151" x="235" y="234.1426">Director(Builder builder)</text><ellipse cx="226" cy="247.5234" fill="#595959" rx="3" ry="3" style="stroke:#ABABAB;stroke-width:1.0;"/><text fill="#FFFFFF" font-family="sans-serif" font-size="14" lengthAdjust="spacing" textLength="192" x="235" y="251.752">changeBuilder(Builder builder)</text><ellipse cx="226" cy="265.1328" fill="#595959" rx="3" ry="3" style="stroke:#ABABAB;stroke-width:1.0;"/><text fill="#FFFFFF" font-family="sans-serif" font-size="14" lengthAdjust="spacing" textLength="107" x="235" y="269.3613">make(Type type)</text></g><!--MD5=[85fa41478d080d6079ace2c1a9cb0308]
class ConcreteBuilder1--><g id="elem_ConcreteBuilder1"><rect codeLine="25" fill="#0E0E0E" height="153.6563" id="ConcreteBuilder1" rx="2.5" ry="2.5" style="stroke:#E7E7E7;stroke-width:0.5;" width="157" x="468.5" y="140"/><ellipse cx="490.25" cy="156" fill="#3D3D3D" rx="11" ry="11" style="stroke:#E7E7E7;stroke-width:1.0;"/><path d="M493.0156,151.875 Q493.1719,151.6563 493.3594,151.5469 Q493.5469,151.4375 493.7656,151.4375 Q494.1406,151.4375 494.375,151.7031 Q494.6094,151.9531 494.6094,152.5625 L494.6094,154.0156 Q494.6094,154.625 494.375,154.8906 Q494.1406,155.1563 493.7656,155.1563 Q493.4219,155.1563 493.2188,154.9531 Q493.0156,154.7656 492.9063,154.25 Q492.8594,153.8906 492.6719,153.7031 Q492.3438,153.3281 491.7344,153.1094 Q491.125,152.8906 490.5,152.8906 Q489.7344,152.8906 489.0938,153.2188 Q488.4688,153.5469 487.9688,154.2969 Q487.4844,155.0469 487.4844,156.0781 L487.4844,157.1719 Q487.4844,158.4063 488.375,159.2344 Q489.2656,160.0469 490.8594,160.0469 Q491.7969,160.0469 492.4531,159.7969 Q492.8438,159.6406 493.2656,159.2031 Q493.5313,158.9375 493.6719,158.8594 Q493.8281,158.7813 494.0313,158.7813 Q494.3594,158.7813 494.6094,159.0469 Q494.875,159.2969 494.875,159.6406 Q494.875,159.9844 494.5313,160.3906 Q494.0313,160.9688 493.2344,161.2969 Q492.1563,161.75 490.8594,161.75 Q489.3438,161.75 488.1406,161.125 Q487.1563,160.625 486.4688,159.5625 Q485.7813,158.4844 485.7813,157.2031 L485.7813,156.0469 Q485.7813,154.7188 486.3906,153.5781 Q487.0156,152.4219 488.1094,151.8125 Q489.2031,151.1875 490.4375,151.1875 Q491.1719,151.1875 491.8125,151.3594 Q492.4688,151.5156 493.0156,151.875 Z " fill="#FFFFFF"/><text fill="#FFFFFF" font-family="sans-serif" font-size="14" lengthAdjust="spacing" textLength="110" x="505.75" y="161.7285">ConcreteBuilder1</text><line style="stroke:#E7E7E7;stroke-width:0.5;" x1="469.5" x2="624.5" y1="172" y2="172"/><rect fill="none" height="6" style="stroke:#A6A6A6;stroke-width:1.0;" width="6" x="476.5" y="183.3047"/><text fill="#FFFFFF" font-family="sans-serif" font-size="14" lengthAdjust="spacing" textLength="96" x="488.5" y="190.5332">Product1 result</text><line style="stroke:#E7E7E7;stroke-width:0.5;" x1="469.5" x2="624.5" y1="197.6094" y2="197.6094"/><ellipse cx="479.5" cy="211.9141" fill="#595959" rx="3" ry="3" style="stroke:#ABABAB;stroke-width:1.0;"/><text fill="#FFFFFF" font-family="sans-serif" font-size="14" lengthAdjust="spacing" textLength="42" x="488.5" y="216.1426">reset()</text><ellipse cx="479.5" cy="229.5234" fill="#595959" rx="3" ry="3" style="stroke:#ABABAB;stroke-width:1.0;"/><text fill="#FFFFFF" font-family="sans-serif" font-size="14" lengthAdjust="spacing" textLength="78" x="488.5" y="233.752">buildStepA()</text><ellipse cx="479.5" cy="247.1328" fill="#595959" rx="3" ry="3" style="stroke:#ABABAB;stroke-width:1.0;"/><text fill="#FFFFFF" font-family="sans-serif" font-size="14" lengthAdjust="spacing" textLength="78" x="488.5" y="251.3613">buildStepB()</text><ellipse cx="479.5" cy="264.7422" fill="#595959" rx="3" ry="3" style="stroke:#ABABAB;stroke-width:1.0;"/><text fill="#FFFFFF" font-family="sans-serif" font-size="14" lengthAdjust="spacing" textLength="77" x="488.5" y="268.9707">buildStepZ()</text><ellipse cx="479.5" cy="282.3516" fill="#595959" rx="3" ry="3" style="stroke:#ABABAB;stroke-width:1.0;"/><text fill="#FFFFFF" font-family="sans-serif" font-size="14" lengthAdjust="spacing" textLength="131" x="488.5" y="286.5801">Product1 getResult()</text></g><!--MD5=[315d5bcb02b2f9a65cde410a9ce0750f]
class ConcreteBuilder2--><g id="elem_ConcreteBuilder2"><rect codeLine="35" fill="#0E0E0E" height="153.6563" id="ConcreteBuilder2" rx="2.5" ry="2.5" style="stroke:#E7E7E7;stroke-width:0.5;" width="157" x="22.5" y="140"/><ellipse cx="44.25" cy="156" fill="#3D3D3D" rx="11" ry="11" style="stroke:#E7E7E7;stroke-width:1.0;"/><path d="M47.0156,151.875 Q47.1719,151.6563 47.3594,151.5469 Q47.5469,151.4375 47.7656,151.4375 Q48.1406,151.4375 48.375,151.7031 Q48.6094,151.9531 48.6094,152.5625 L48.6094,154.0156 Q48.6094,154.625 48.375,154.8906 Q48.1406,155.1563 47.7656,155.1563 Q47.4219,155.1563 47.2188,154.9531 Q47.0156,154.7656 46.9063,154.25 Q46.8594,153.8906 46.6719,153.7031 Q46.3438,153.3281 45.7344,153.1094 Q45.125,152.8906 44.5,152.8906 Q43.7344,152.8906 43.0938,153.2188 Q42.4688,153.5469 41.9688,154.2969 Q41.4844,155.0469 41.4844,156.0781 L41.4844,157.1719 Q41.4844,158.4063 42.375,159.2344 Q43.2656,160.0469 44.8594,160.0469 Q45.7969,160.0469 46.4531,159.7969 Q46.8438,159.6406 47.2656,159.2031 Q47.5313,158.9375 47.6719,158.8594 Q47.8281,158.7813 48.0313,158.7813 Q48.3594,158.7813 48.6094,159.0469 Q48.875,159.2969 48.875,159.6406 Q48.875,159.9844 48.5313,160.3906 Q48.0313,160.9688 47.2344,161.2969 Q46.1563,161.75 44.8594,161.75 Q43.3438,161.75 42.1406,161.125 Q41.1563,160.625 40.4688,159.5625 Q39.7813,158.4844 39.7813,157.2031 L39.7813,156.0469 Q39.7813,154.7188 40.3906,153.5781 Q41.0156,152.4219 42.1094,151.8125 Q43.2031,151.1875 44.4375,151.1875 Q45.1719,151.1875 45.8125,151.3594 Q46.4688,151.5156 47.0156,151.875 Z " fill="#FFFFFF"/><text fill="#FFFFFF" font-family="sans-serif" font-size="14" lengthAdjust="spacing" textLength="110" x="59.75" y="161.7285">ConcreteBuilder2</text><line style="stroke:#E7E7E7;stroke-width:0.5;" x1="23.5" x2="178.5" y1="172" y2="172"/><rect fill="none" height="6" style="stroke:#A6A6A6;stroke-width:1.0;" width="6" x="30.5" y="183.3047"/><text fill="#FFFFFF" font-family="sans-serif" font-size="14" lengthAdjust="spacing" textLength="96" x="42.5" y="190.5332">Product2 result</text><line style="stroke:#E7E7E7;stroke-width:0.5;" x1="23.5" x2="178.5" y1="197.6094" y2="197.6094"/><ellipse cx="33.5" cy="211.9141" fill="#595959" rx="3" ry="3" style="stroke:#ABABAB;stroke-width:1.0;"/><text fill="#FFFFFF" font-family="sans-serif" font-size="14" lengthAdjust="spacing" textLength="42" x="42.5" y="216.1426">reset()</text><ellipse cx="33.5" cy="229.5234" fill="#595959" rx="3" ry="3" style="stroke:#ABABAB;stroke-width:1.0;"/><text fill="#FFFFFF" font-family="sans-serif" font-size="14" lengthAdjust="spacing" textLength="78" x="42.5" y="233.752">buildStepA()</text><ellipse cx="33.5" cy="247.1328" fill="#595959" rx="3" ry="3" style="stroke:#ABABAB;stroke-width:1.0;"/><text fill="#FFFFFF" font-family="sans-serif" font-size="14" lengthAdjust="spacing" textLength="78" x="42.5" y="251.3613">buildStepB()</text><ellipse cx="33.5" cy="264.7422" fill="#595959" rx="3" ry="3" style="stroke:#ABABAB;stroke-width:1.0;"/><text fill="#FFFFFF" font-family="sans-serif" font-size="14" lengthAdjust="spacing" textLength="77" x="42.5" y="268.9707">buildStepZ()</text><ellipse cx="33.5" cy="282.3516" fill="#595959" rx="3" ry="3" style="stroke:#ABABAB;stroke-width:1.0;"/><text fill="#FFFFFF" font-family="sans-serif" font-size="14" lengthAdjust="spacing" textLength="131" x="42.5" y="286.5801">Product2 getResult()</text></g><!--MD5=[6ab72f33c54f40b1283a4771c3829f11]
link Client to Director--><g id="link_Client_Director"><path codeLine="46" d="M421.83,80.27 C408.75,98.42 387.94,127.29 368.87,153.75 " fill="none" id="Client-to-Director" style="stroke:#E7E7E7;stroke-width:1.0;"/><polygon fill="#E7E7E7" points="365.83,157.97,374.3409,153.0137,368.7564,153.9159,367.8542,148.3314,365.83,157.97" style="stroke:#E7E7E7;stroke-width:1.0;"/></g><!--MD5=[c114f9c6f07acad7b29d715f85a0d5ae]
link Client to ConcreteBuilder1--><g id="link_Client_ConcreteBuilder1"><path codeLine="47" d="M448.29,80.27 C458.5,94.31 473.38,114.77 488.5,135.56 " fill="none" id="Client-to-ConcreteBuilder1" style="stroke:#E7E7E7;stroke-width:1.0;stroke-dasharray:7.0,7.0;"/><polygon fill="#E7E7E7" points="491.53,139.73,489.4674,130.0996,488.5874,135.6876,482.9994,134.8076,491.53,139.73" style="stroke:#E7E7E7;stroke-width:1.0;"/></g><!--MD5=[2760341590ffd2e711ef41992cc437b9]
link Director to Builder--><g id="link_Director_Builder"><path codeLine="49" d="M324,276.21 C324,299.03 324,325.29 324,348.6 " fill="none" id="Director-to-Builder" style="stroke:#E7E7E7;stroke-width:1.0;"/><polygon fill="#E7E7E7" points="324,353.83,328,344.83,324,348.83,320,344.83,324,353.83" style="stroke:#E7E7E7;stroke-width:1.0;"/></g><!--MD5=[b765bd54353642674ad81e4d2b473313]
link ConcreteBuilder1 to Builder--><g id="link_ConcreteBuilder1_Builder"><path codeLine="51" d="M468.38,286.4 C443.28,308.23 415.74,332.19 391.5,353.28 " fill="none" id="ConcreteBuilder1-to-Builder" style="stroke:#E7E7E7;stroke-width:1.0;"/><polygon fill="none" points="395.8,358.82,376.11,366.66,386.61,348.26,395.8,358.82" style="stroke:#E7E7E7;stroke-width:1.0;"/></g><!--MD5=[57a4e8c187579e3f4f7000a0bbd6dd9c]
link ConcreteBuilder2 to Builder--><g id="link_ConcreteBuilder2_Builder"><path codeLine="52" d="M179.62,286.4 C204.72,308.23 232.26,332.19 256.5,353.28 " fill="none" id="ConcreteBuilder2-to-Builder" style="stroke:#E7E7E7;stroke-width:1.0;"/><polygon fill="none" points="261.39,348.26,271.89,366.66,252.2,358.82,261.39,348.26" style="stroke:#E7E7E7;stroke-width:1.0;"/></g><!--MD5=[4452070f4ac110fa8ac8eb8dd4ff5d6c]
link ConcreteBuilder1 to Product1--><g id="link_ConcreteBuilder1_Product1"><path codeLine="54" d="M547,294.12 C547,327.87 547,365.16 547,388.58 " fill="none" id="ConcreteBuilder1-to-Product1" style="stroke:#E7E7E7;stroke-width:1.0;"/><polygon fill="#E7E7E7" points="547,393.65,551,384.65,547,388.65,543,384.65,547,393.65" style="stroke:#E7E7E7;stroke-width:1.0;"/></g><!--MD5=[50876eb115930d4a175a5c8c1fa0b16c]
link ConcreteBuilder2 to Product2--><g id="link_ConcreteBuilder2_Product2"><path codeLine="55" d="M101,294.12 C101,327.87 101,365.16 101,388.58 " fill="none" id="ConcreteBuilder2-to-Product2" style="stroke:#E7E7E7;stroke-width:1.0;"/><polygon fill="#E7E7E7" points="101,393.65,105,384.65,101,388.65,97,384.65,101,393.65" style="stroke:#E7E7E7;stroke-width:1.0;"/></g><!--MD5=[2bf3617a6ab352d1495c533d533560d3]
@startuml builder

skinparam monochrome reverse

package builderPattern{
    object Client

    object Product1
    object Product2

    interface Builder{
        +reset()
        +buildStepA()
        +buildStepB()
        +buildStepZ()
    }

    class Director{
        -Builder builder

        +Director(Builder builder)
        +changeBuilder(Builder builder)
        +make(Type type)
    }

    class ConcreteBuilder1{
        -Product1 result

        +reset()
        +buildStepA()
        +buildStepB()
        +buildStepZ()
        +Product1 getResult()
    }

    class ConcreteBuilder2{
        -Product2 result

        +reset()
        +buildStepA()
        +buildStepB()
        +buildStepZ()
        +Product2 getResult()
    }
}

Client - -> Director
Client ..> ConcreteBuilder1

Director - -> Builder

ConcreteBuilder1 - -|> Builder
ConcreteBuilder2 - -|> Builder

ConcreteBuilder1 - -> Product1
ConcreteBuilder2 - -> Product2


@enduml

PlantUML version 1.2022.7(Mon Aug 22 11:01:30 CST 2022)
(GPL source distribution)
Java Runtime: Java(TM) SE Runtime Environment
JVM: Java HotSpot(TM) 64-Bit Server VM
Default Encoding: Cp1252
Language: en
Country: US
--></g></svg>