<?xml version="1.0" encoding="us-ascii" standalone="no"?><svg xmlns="http://www.w3.org/2000/svg" xmlns:xlink="http://www.w3.org/1999/xlink" contentStyleType="text/css" height="110px" preserveAspectRatio="none" style="width:342px;height:110px;background:#FFFFFF;" version="1.1" viewBox="0 0 342 110" width="342px" zoomAndPan="magnify"><defs/><g><!--class Singleton--><g id="elem_Singleton"><rect codeLine="1" fill="#F1F1F1" height="96.8906" id="Singleton" rx="2.5" ry="2.5" style="stroke:#181818;stroke-width:0.5;" width="201" x="99" y="7"/><ellipse cx="160.75" cy="23" fill="#ADD1B2" rx="11" ry="11" style="stroke:#181818;stroke-width:1.0;"/><path d="M163.0938,18.6719 C162.1563,18.2344 161.5625,18.0938 160.6875,18.0938 C158.0625,18.0938 156.0625,20.1719 156.0625,22.8906 L156.0625,24.0156 C156.0625,26.5938 158.1719,28.4844 161.0625,28.4844 C162.2813,28.4844 163.4375,28.1875 164.1875,27.6406 C164.7656,27.2344 165.0938,26.7813 165.0938,26.3906 C165.0938,25.9375 164.7031,25.5469 164.2344,25.5469 C164.0156,25.5469 163.8125,25.625 163.625,25.8125 C163.1719,26.2969 163.1719,26.2969 162.9844,26.3906 C162.5625,26.6563 161.875,26.7813 161.1094,26.7813 C159.0625,26.7813 157.7656,25.6875 157.7656,23.9844 L157.7656,22.8906 C157.7656,21.1094 159.0156,19.7969 160.75,19.7969 C161.3281,19.7969 161.9375,19.9531 162.4063,20.2031 C162.8906,20.4844 163.0625,20.7031 163.1563,21.1094 C163.2188,21.5156 163.25,21.6406 163.3906,21.7656 C163.5313,21.9063 163.7656,22.0156 163.9844,22.0156 C164.25,22.0156 164.5156,21.875 164.6875,21.6563 C164.7969,21.5 164.8281,21.3125 164.8281,20.8906 L164.8281,19.4688 C164.8281,19.0313 164.8125,18.9063 164.7188,18.75 C164.5625,18.4844 164.2813,18.3438 163.9844,18.3438 C163.6875,18.3438 163.4844,18.4375 163.2656,18.75 L163.0938,18.6719 Z " fill="#000000"/><text fill="#000000" font-family="sans-serif" font-size="14" lengthAdjust="spacing" textLength="69" x="181.25" y="27.8467">Singleton</text><line style="stroke:#181818;stroke-width:0.5;" x1="100" x2="299" y1="39" y2="39"/><rect fill="none" height="6" style="stroke:#C82930;stroke-width:1.0;" width="6" x="107" y="49.6484"/><text fill="#000000" font-family="sans-serif" font-size="14" lengthAdjust="spacing" textLength="139" x="119" y="55.9951">Instance: Singleton</text><line style="stroke:#181818;stroke-width:0.5;" x1="100" x2="299" y1="63.2969" y2="63.2969"/><rect fill="#F24D5C" height="6" style="stroke:#C82930;stroke-width:1.0;" width="6" x="107" y="73.9453"/><text fill="#000000" font-family="sans-serif" font-size="14" lengthAdjust="spacing" textLength="79" x="119" y="80.292">Singleton()</text><ellipse cx="110" cy="93.2422" fill="#84BE84" rx="3" ry="3" style="stroke:#038048;stroke-width:1.0;"/><text fill="#000000" font-family="sans-serif" font-size="14" lengthAdjust="spacing" textLength="175" x="119" y="96.5889">getiNstance(): Singleton</text></g><g id="elem_Client"><rect fill="#F1F1F1" height="36.2969" style="stroke:#181818;stroke-width:0.5;" width="57" x="7" y="37.5"/><text fill="#000000" font-family="sans-serif" font-size="14" lengthAdjust="spacing" textLength="43" x="14" y="52.4951">Client</text><line style="stroke:#181818;stroke-width:0.5;" x1="8" x2="63" y1="57.7969" y2="57.7969"/></g><!--link Client to Singleton--><g id="link_Client_Singleton"><path codeLine="9" d="M64.0078,55.5 C73.9233,55.5 83.8388,55.5 93.7542,55.5 " fill="none" id="Client-to-Singleton" style="stroke:#181818;stroke-width:1.0;"/><polygon fill="#181818" points="98.9394,55.5,89.9394,51.5,93.9394,55.5,89.9394,59.5,98.9394,55.5" style="stroke:#181818;stroke-width:1.0;"/></g><!--reverse link Singleton to Singleton--><g id="link_Singleton_Singleton"><path codeLine="10" d="M305.344,38.7932 C322.9,41.1475 335,46.7164 335,55.5 C335,65.1094 320.518,70.8712 300.253,72.7856 " fill="none" id="Singleton-backto-Singleton" style="stroke:#181818;stroke-width:1.0;"/><polygon fill="#181818" points="300.253,38.2144,308.7441,43.2046,305.2211,38.7787,309.6469,35.2557,300.253,38.2144" style="stroke:#181818;stroke-width:1.0;"/></g><!--SRC=[Iyv9B2vM2CxCIyz9BSdFg-PIW09T1S-yufB4lEHKAuGqaYnSJ4CJBggTdbgIwGVHfQ69hg-M2qpb9sMb9fSeEETafkQLG8GWR0NTeipqZ19TEpHzS9w2Ravg6eey0000]--></g></svg>