<?xml version="1.0" encoding="us-ascii" standalone="no"?><svg xmlns="http://www.w3.org/2000/svg" xmlns:xlink="http://www.w3.org/1999/xlink" contentStyleType="text/css" height="259px" preserveAspectRatio="none" style="width:494px;height:259px;background:#FFFFFF;" version="1.1" viewBox="0 0 494 259" width="494px" zoomAndPan="magnify"><defs/><g><g id="elem_Client"><rect fill="#F1F1F1" height="36.2969" style="stroke:#181818;stroke-width:0.5;" width="57" x="348" y="7"/><text fill="#000000" font-family="sans-serif" font-size="14" lengthAdjust="spacing" textLength="43" x="355" y="21.9951">Client</text><line style="stroke:#181818;stroke-width:0.5;" x1="349" x2="404" y1="27.2969" y2="27.2969"/></g><g id="elem_Context"><rect fill="#F1F1F1" height="36.2969" style="stroke:#181818;stroke-width:0.5;" width="73" x="415" y="107.5"/><text fill="#000000" font-family="sans-serif" font-size="14" lengthAdjust="spacing" textLength="59" x="422" y="122.4951">Context</text><line style="stroke:#181818;stroke-width:0.5;" x1="416" x2="487" y1="127.7969" y2="127.7969"/></g><g id="elem_AbstractExpression"><rect fill="#F1F1F1" height="44.5938" style="stroke:#181818;stroke-width:0.5;" width="155" x="225" y="103"/><text fill="#000000" font-family="sans-serif" font-size="14" lengthAdjust="spacing" textLength="141" x="232" y="117.9951">AbstractExpression</text><line style="stroke:#181818;stroke-width:0.5;" x1="226" x2="379" y1="123.2969" y2="123.2969"/><text fill="#000000" font-family="sans-serif" font-size="14" lengthAdjust="spacing" textLength="136" x="231" y="140.292">Interpret(Context)</text></g><g id="elem_TerminalExpression"><rect fill="#F1F1F1" height="44.5938" style="stroke:#181818;stroke-width:0.5;" width="155" x="225" y="208"/><text fill="#000000" font-family="sans-serif" font-size="14" lengthAdjust="spacing" textLength="141" x="232" y="222.9951">TerminalExpression</text><line style="stroke:#181818;stroke-width:0.5;" x1="226" x2="379" y1="228.2969" y2="228.2969"/><text fill="#000000" font-family="sans-serif" font-size="14" lengthAdjust="spacing" textLength="136" x="231" y="245.292">Interpret(Context)</text></g><g id="elem_NonTerminalExpression"><rect fill="#F1F1F1" height="44.5938" style="stroke:#181818;stroke-width:0.5;" width="183" x="7" y="103"/><text fill="#000000" font-family="sans-serif" font-size="14" lengthAdjust="spacing" textLength="169" x="14" y="117.9951">NonTerminalExpression</text><line style="stroke:#181818;stroke-width:0.5;" x1="8" x2="189" y1="123.2969" y2="123.2969"/><text fill="#000000" font-family="sans-serif" font-size="14" lengthAdjust="spacing" textLength="136" x="13" y="140.292">Interpret(Context)</text></g><!--link Client to Context--><g id="link_Client_Context"><path codeLine="13" d="M389.564,43.157 C402.177,59.722 421.322,84.867 434.986,102.811 " fill="none" id="Client-to-Context" style="stroke:#181818;stroke-width:1.0;"/><polygon fill="#181818" points="438.334,107.209,436.0616,97.6259,435.3039,103.2317,429.698,102.474,438.334,107.209" style="stroke:#181818;stroke-width:1.0;"/></g><!--link Client to AbstractExpression--><g id="link_Client_AbstractExpression"><path codeLine="14" d="M363.61,43.157 C352.158,58.401 335.247,80.91 322.117,98.388 " fill="none" id="Client-to-AbstractExpression" style="stroke:#181818;stroke-width:1.0;"/><polygon fill="#181818" points="318.866,102.716,327.4709,97.9248,321.8701,98.7191,321.0759,93.1183,318.866,102.716" style="stroke:#181818;stroke-width:1.0;"/></g><!--reverse link AbstractExpression to TerminalExpression--><g id="link_AbstractExpression_TerminalExpression"><path codeLine="15" d="M302.5,168.7415 C302.5,182.1193 302.5,196.3589 302.5,207.6878 " fill="none" id="AbstractExpression-backto-TerminalExpression" style="stroke:#181818;stroke-width:1.0;"/><polygon fill="none" points="295.5,168.3437,302.5,148.344,309.5,168.3436,295.5,168.3437" style="stroke:#181818;stroke-width:1.0;"/></g><!--link NonTerminalExpression to AbstractExpression--><g id="link_NonTerminalExpression_AbstractExpression"><path codeLine="16" d="M190.141,142.201 C195.017,142.365 199.893,142.413 204.768,142.345 " fill="none" id="NonTerminalExpression-to-AbstractExpression" style="stroke:#181818;stroke-width:1.0;"/><polygon fill="none" points="204.511,135.35,224.814,141.416,205.16,149.335,204.511,135.35" style="stroke:#181818;stroke-width:1.0;"/></g><!--reverse link NonTerminalExpression to AbstractExpression--><g id="link_NonTerminalExpression_AbstractExpression"><path codeLine="17" d="M203.143,108.636 C210.367,108.698 217.59,109.014 224.814,109.584 " fill="none" id="NonTerminalExpression-backto-AbstractExpression" style="stroke:#181818;stroke-width:1.0;"/><polygon fill="none" points="190.141,108.799,196.1906,112.7235,202.1401,108.6487,196.0904,104.7241,190.141,108.799" style="stroke:#181818;stroke-width:1.0;"/></g><!--SRC=[oq_AIaqkKN3EoKpDA-7AX_BoyqfIA-1SnwJYagB4v1BNYeAYrEBYpFoyQYu58F04gYe22fLeG3LeSjN2z8Ia5kLcvYNcaAB7Bp-F96rS45ShwEhQmPsC98JfR2vCunLqImjqQx0gnkeSeCdOLMCAAUZcfAQLwEPZznS0]--></g></svg>